<?xml version="1.0" standalone="no"?>
<svg xmlns="http://www.w3.org/2000/svg" xmlns:xlink="http://www.w3.org/1999/xlink" width="312pt" height="754pt" viewBox="0.00 0.00 312.00 754.00">
<g id="graph0" class="graph" transform="translate(4,750) scale(1)" data-name="G">

<polygon fill="white" stroke="none" points="-4,4 -4,-750 308,-750 308,4 -4,4" style=""/>
<g id="clust1" class="cluster" data-name="cluster0">

<polygon fill="none" stroke="black" points="8,-8 8,-738 296,-738 296,-8 8,-8" style=""/>
<text text-anchor="middle" x="152" y="-711.5" font-family="Times,serif" font-size="25.00" style="">Robot_States_Diagram</text>
</g>
<!-- Data_and_Connection -->
<g id="node1" class="node" pointer-events="visible" data-name="Data_and_Connection">

<ellipse fill="red" stroke="black" cx="152" cy="-624" rx="97.12" ry="36" style=""/>
<text text-anchor="middle" x="152" y="-618.6" font-family="Times,serif" font-size="18.00" style="">Data_and_Connection</text>
</g>
<!-- Target_clamping -->
<g id="node2" class="node" pointer-events="visible" data-name="Target_clamping">

<ellipse fill="lightgrey" stroke="black" cx="142" cy="-516" rx="93.5" ry="36" style=""/>
<text text-anchor="middle" x="142" y="-510.6" font-family="Times,serif" font-size="18.00" style="">Target_clamping</text>
</g>
<!-- Data_and_Connection&#45;&gt;Target_clamping -->
<g id="edge1" class="edge" data-name="Data_and_Connection-&gt;Target_clamping">

<path fill="none" stroke="black" d="M148.67,-587.7C147.94,-579.93 147.15,-571.57 146.38,-563.43" style=""/>
<polygon fill="black" stroke="black" points="149.88,-563.28 145.46,-553.65 142.91,-563.93 149.88,-563.28" style=""/>
</g>
<!-- Calibrating_area -->
<g id="node3" class="node" pointer-events="visible" data-name="Calibrating_area">

<ellipse fill="lightgrey" stroke="black" cx="142" cy="-408" rx="93.5" ry="36" style=""/>
<text text-anchor="middle" x="142" y="-402.6" font-family="Times,serif" font-size="18.00" style="">Calibrating_area</text>
</g>
<!-- Target_clamping&#45;&gt;Calibrating_area -->
<g id="edge2" class="edge" data-name="Target_clamping-&gt;Calibrating_area">

<path fill="none" stroke="black" d="M142,-479.7C142,-471.93 142,-463.57 142,-455.43" style=""/>
<polygon fill="black" stroke="black" points="145.5,-455.66 142,-445.66 138.5,-455.66 145.5,-455.66" style=""/>
</g>
<!-- Calibrating -->
<g id="node4" class="node" pointer-events="visible" data-name="Calibrating">

<ellipse fill="lightgrey" stroke="black" cx="142" cy="-300" rx="93.5" ry="36" style=""/>
<text text-anchor="middle" x="142" y="-294.6" font-family="Times,serif" font-size="18.00" style="">Calibrating</text>
</g>
<!-- Calibrating_area&#45;&gt;Calibrating -->
<g id="edge3" class="edge" data-name="Calibrating_area-&gt;Calibrating">

<path fill="none" stroke="black" d="M142,-371.7C142,-363.93 142,-355.57 142,-347.43" style=""/>
<polygon fill="black" stroke="black" points="145.5,-347.66 142,-337.66 138.5,-347.66 145.5,-347.66" style=""/>
</g>
<!-- Building_tower -->
<g id="node5" class="node" pointer-events="visible" data-name="Building_tower">

<ellipse fill="lightgrey" stroke="black" cx="142" cy="-192" rx="93.5" ry="36" style=""/>
<text text-anchor="middle" x="142" y="-186.6" font-family="Times,serif" font-size="18.00" style="">Building_tower</text>
</g>
<!-- Calibrating&#45;&gt;Building_tower -->
<g id="edge4" class="edge" data-name="Calibrating-&gt;Building_tower">

<path fill="none" stroke="black" d="M142,-263.7C142,-255.93 142,-247.57 142,-239.43" style=""/>
<polygon fill="black" stroke="black" points="145.5,-239.66 142,-229.66 138.5,-239.66 145.5,-239.66" style=""/>
</g>
<!-- Home -->
<g id="node6" class="node" pointer-events="visible" data-name="Home">

<ellipse fill="lightgrey" stroke="black" cx="152" cy="-84" rx="93.5" ry="36" style=""/>
<text text-anchor="middle" x="152" y="-78.6" font-family="Times,serif" font-size="18.00" style="">Home</text>
</g>
<!-- Building_tower&#45;&gt;Home -->
<g id="edge5" class="edge" data-name="Building_tower-&gt;Home">

<path fill="none" stroke="black" d="M145.33,-155.7C146.06,-147.93 146.85,-139.57 147.62,-131.43" style=""/>
<polygon fill="black" stroke="black" points="151.09,-131.93 148.54,-121.65 144.12,-131.28 151.09,-131.93" style=""/>
</g>
<!-- Home&#45;&gt;Data_and_Connection -->
<g id="edge6" class="edge" data-name="Home-&gt;Data_and_Connection">

<path fill="none" stroke="black" d="M205.22,-113.77C220.68,-124.86 235.85,-139.01 245,-156 275.22,-212.09 255,-235.29 255,-299 255,-409 255,-409 255,-409 255,-472.71 275.22,-495.91 245,-552 237.71,-565.53 226.61,-577.26 214.59,-587.07" style=""/>
<polygon fill="black" stroke="black" points="212.72,-584.1 206.91,-592.96 216.98,-589.65 212.72,-584.1" style=""/>
</g>
</g>
</svg>